# xmcd CD database file
#
# Track frame offsets:
#	150
#	17605
#	37960
#	58907
#	79922
#	99132
#	121382
#	143157
#	158895
#	176330
#	197887
#	216547
#	239612
#	260385
#	277540
#	301187
#
# Disc length: 4264 seconds
#
# Revision: 0
# Processed by: cddbd v1.5PL3 Copyright (c) Steve Scherf et al.
# Submitted via: CDex 1.51
#
DISCID=d610a610
DTITLE=Various Artist - HITS '90s
DYEAR=1998
DGENRE=Other
TTITLE0=プリンス - エンドルフィンマシン
TTITLE1=スノー - インフォーマー
TTITLE2=アース・ウィンド＆ファイアー - サンデー・モーニング
TTITLE3=ペット・ミドラー - ディスタンス
TTITLE4=TAKE6 - ビゲスト・パート・オブ・ミー
TTITLE5=アトランティック・スター - マスター・ピース
TTITLE6=アランナ・マイルズ - ブラック・ベルベット
TTITLE7=MR.BIG - トゥ・ビー・ウィズ・ユー
TTITLE8=スキッド・ロウ - エイティーン・アンド・ライフ
TTITLE9=ダム・ヤンキーズ - ハイ・イナフ
TTITLE10=キャリン・ホワイト - ロマンティック
TTITLE11=アン・ヴォーグ - ホールド・オン
TTITLE12=シルク /フリーク・ミー
TTITLE13=インナー・サークル - スウェット
TTITLE14=R.E.M. - マン・オン・ザ・ムーン
TTITLE15=シンプリー・レッド - スターズ
EXTD=YEAR: 1998
EXTT0=
EXTT1=
EXTT2=
EXTT3=
EXTT4=
EXTT5=
EXTT6=
EXTT7=
EXTT8=
EXTT9=
EXTT10=
EXTT11=
EXTT12=
EXTT13=
EXTT14=
EXTT15=
PLAYORDER=
